<?xml version="1.0" standalone="no"?>
<!DOCTYPE svg PUBLIC "-//W3C//DTD SVG 20010904//EN"
 "http://www.w3.org/TR/2001/REC-SVG-20010904/DTD/svg10.dtd">
<svg version="1.0" xmlns="http://www.w3.org/2000/svg"
 width="320.000000pt" height="320.000000pt" viewBox="0 0 320.000000 320.000000"
 preserveAspectRatio="xMidYMid meet">

<g transform="translate(0.000000,320.000000) scale(0.100000,-0.100000)"
fill="#000000" stroke="none">
<path d="M0 1600 l0 -1600 1600 0 1600 0 0 1600 0 1600 -1600 0 -1600 0 0
-1600z m1433 392 c3 -4 8 -48 12 -99 l7 -91 -38 1 c-22 1 -49 -2 -61 -6 -25
-9 -28 -2 -37 98 -6 59 -6 60 26 82 33 22 82 30 91 15z m225 -7 c3 -2 -19
-228 -22 -232 -1 -1 -29 6 -61 16 -68 21 -62 4 -50 153 l7 78 61 -7 c34 -3 63
-7 65 -8z m317 -76 c4 -49 4 -93 1 -97 -6 -5 -90 -30 -108 -32 -3 0 -10 17
-16 38 l-10 37 -1 -42 c-1 -41 -3 -43 -41 -53 -50 -13 -43 -35 8 -25 l35 6 -7
-32 c-3 -17 -6 -54 -6 -81 0 -47 -1 -50 -22 -44 -13 4 -40 10 -61 13 -21 3
-39 8 -41 12 -2 3 2 78 10 166 7 88 13 172 14 187 0 29 7 31 176 36 l62 2 7
-91z m650 72 c56 -8 59 -6 -52 -50 l-53 -21 0 40 c0 45 3 46 105 31z m-459
-118 c8 -18 14 -66 14 -108 0 -60 3 -75 15 -75 10 0 15 10 15 34 0 19 8 44 19
57 l19 23 11 -74 c17 -106 19 -106 20 -2 1 70 4 93 14 89 8 -2 11 -19 9 -48
-2 -24 -5 -64 -6 -88 -4 -53 -24 -71 -77 -71 -38 0 -49 -14 -49 -66 0 -21 -2
-21 -47 -10 l-48 12 0 100 0 99 28 -3 c35 -4 34 9 -3 31 -29 18 -30 20 -30
101 0 45 3 86 7 90 10 10 73 -54 89 -91z m-907 -144 c15 -196 15 -196 -9 -204
-27 -9 -26 -44 5 -89 13 -19 27 -58 31 -86 l7 -50 -60 0 c-32 0 -64 5 -70 11
-6 6 -55 13 -109 16 -55 3 -100 6 -100 7 -1 0 0 33 3 72 l6 71 61 26 61 25 3
-39 c3 -36 6 -39 33 -39 28 0 29 1 29 53 0 51 1 54 35 70 46 22 44 37 -4 37
l-39 0 -7 95 c-4 53 -5 99 -1 102 13 14 48 -35 53 -76 9 -66 30 -51 29 22 0
74 12 143 23 131 5 -5 14 -75 20 -155z m1262 74 c-9 -15 -10 -12 -10 17 0 29
1 32 10 18 7 -12 7 -24 0 -35z m-111 3 c0 -19 -4 -23 -20 -19 -25 7 -25 12 -2
29 22 18 22 18 22 -10z m-1306 -58 l-6 -55 -36 13 c-49 16 -51 30 -5 41 23 6
37 15 35 23 -2 7 0 20 3 28 11 29 15 4 9 -50z m356 2 c0 -5 -6 -10 -12 -11
-10 0 -10 -2 0 -6 16 -6 16 -33 -1 -33 -7 0 -18 5 -25 12 -9 9 -13 7 -18 -7
-9 -22 6 -46 37 -62 17 -8 26 -24 30 -50 4 -21 5 -41 2 -45 -2 -5 -30 -8 -62
-8 l-58 0 -7 78 c-4 42 -9 92 -12 110 l-6 32 66 0 c37 0 66 -4 66 -10z m148
-6 c18 -4 22 -11 22 -43 0 -91 -5 -98 -97 -137 l-33 -14 0 38 c0 34 4 40 35
55 20 9 35 24 35 34 0 20 -28 53 -47 53 -7 0 -13 6 -13 14 0 14 27 14 98 0z
m382 -5 c0 -16 -4 -19 -17 -13 -10 4 -36 9 -58 12 -33 3 -38 2 -27 -9 17 -18
15 -31 -5 -27 -9 2 -18 13 -19 25 -4 25 9 30 79 32 42 1 47 -1 47 -20z m10
-140 l0 -62 -56 7 c-31 4 -61 9 -65 12 -5 3 -9 22 -9 42 l0 37 45 1 c25 1 51
6 57 12 22 22 28 12 28 -49z m-279 -106 c7 -16 15 -31 17 -34 1 -3 -8 -13 -21
-22 l-24 -15 -1 49 c-1 55 8 62 29 22z m-823 -105 l-3 -53 -62 -1 c-62 0 -63
0 -63 28 0 25 4 28 33 28 23 0 28 3 18 9 -11 7 -7 13 20 24 57 25 60 23 57
-35z m1295 -23 c25 -10 24 -65 -2 -65 -10 0 -39 -3 -65 -6 l-46 -7 0 46 c0 27
5 47 12 49 14 5 73 -5 101 -17z m212 10 c6 -2 -15 -4 -45 -4 -30 0 -61 3 -68
8 -12 7 90 4 113 -4z m-1698 -17 c-3 -8 -6 -5 -6 6 -1 11 2 17 5 13 3 -3 4
-12 1 -19z m1031 -27 c35 -46 39 -61 19 -61 -15 0 -77 78 -77 98 0 23 23 8 58
-37z m-195 -60 c22 -8 37 -19 37 -28 0 -41 -192 32 -198 74 -3 22 -3 22 60 -6
35 -16 80 -34 101 -40z m460 23 c-20 -16 -89 -54 -98 -54 -3 0 -5 11 -5 23 0
19 11 29 58 49 45 19 58 21 60 10 2 -7 -5 -20 -15 -28z m407 16 l0 -31 -52 6
c-84 10 -95 14 -101 35 -5 19 0 20 74 20 l79 0 0 -30z m112 -10 c28 0 19 -8
-21 -20 -27 -8 -31 -6 -31 12 0 14 5 18 16 14 9 -3 25 -6 36 -6z m-722 -65 c0
-31 -122 -34 -128 -2 -3 15 5 17 62 17 51 0 66 -3 66 -15z"/>
</g>
</svg>
